<svg width="251" height="251" viewBox="0 0 251 251" fill="none" xmlns="http://www.w3.org/2000/svg">
<g clip-path="url(#clip0_35_15)">
<path fill-rule="evenodd" clip-rule="evenodd" d="M160.362 73.3253C150.043 66.4303 137.911 62.75 125.5 62.75V0C150.321 0 174.586 7.36045 195.224 21.1506C215.863 34.9406 231.948 54.5411 241.447 77.473C250.945 100.405 253.431 125.639 248.589 149.984C243.746 174.328 231.793 196.691 214.242 214.242C196.691 231.793 174.328 243.746 149.984 248.589C125.639 253.431 100.405 250.945 77.473 241.447C54.5411 231.948 34.9406 215.863 21.1506 195.224C7.36045 174.586 0 150.321 0 125.5H62.75C62.75 137.911 66.4303 150.043 73.3253 160.362C80.2202 170.681 90.0205 178.724 101.487 183.473C112.953 188.223 125.57 189.465 137.742 187.044C149.914 184.623 161.095 178.647 169.871 169.871C178.647 161.095 184.623 149.914 187.044 137.742C189.465 125.57 188.223 112.953 183.473 101.487C178.724 90.0205 170.681 80.2202 160.362 73.3253Z" fill="#ff355e"/>
<path fill-rule="evenodd" clip-rule="evenodd" d="M62.75 2.71786e-05C62.75 8.24048 61.1269 16.4002 57.9734 24.0134C54.8199 31.6266 50.1978 38.5441 44.3709 44.371C38.5441 50.1979 31.6266 54.82 24.0134 57.9735C16.4002 61.1269 8.24042 62.75 2.74287e-06 62.75L0 125.5C16.4809 125.5 32.8004 122.254 48.0268 115.947C63.2532 109.64 77.0883 100.396 88.7417 88.7417C100.396 77.0884 109.64 63.2533 115.947 48.0268C122.254 32.8004 125.5 16.4809 125.5 0L62.75 2.71786e-05Z" fill="#ff355e"/>
</g>
<defs>
<clipPath id="clip0_35_15">
<rect width="251" height="251" fill="white"/>
</clipPath>
</defs>
</svg>
